<?xml version="1.0" encoding="UTF-8"?>
<!DOCTYPE svg PUBLIC "-//W3C//DTD SVG 1.1//EN" "http://www.w3.org/Graphics/SVG/1.1/DTD/svg11.dtd">
<svg xmlns="http://www.w3.org/2000/svg" version="1.1" width="512px" height="512px" style="shape-rendering:geometricPrecision; text-rendering:geometricPrecision; image-rendering:optimizeQuality; fill-rule:evenodd; clip-rule:evenodd" xmlns:xlink="http://www.w3.org/1999/xlink">
<g><path style="opacity:1" fill="#209cee" d="M 40.5,-0.5 C 183.833,-0.5 327.167,-0.5 470.5,-0.5C 491.833,5.5 505.5,19.1667 511.5,40.5C 511.5,183.833 511.5,327.167 511.5,470.5C 505.5,491.833 491.833,505.5 470.5,511.5C 327.167,511.5 183.833,511.5 40.5,511.5C 19.1667,505.5 5.5,491.833 -0.5,470.5C -0.5,327.167 -0.5,183.833 -0.5,40.5C 5.5,19.1667 19.1667,5.5 40.5,-0.5 Z"/></g>
<g><path style="opacity:1" fill="#fdfefe" d="M 278.5,87.5 C 290.682,84.9748 299.182,89.3082 304,100.5C 324.826,183.472 345.493,266.472 366,349.5C 385.863,267.048 406.196,184.715 427,102.5C 434.096,86.5133 445.263,83.0133 460.5,92C 462.041,93.5793 463.208,95.4127 464,97.5C 464.667,101.833 464.667,106.167 464,110.5C 440.177,206.791 416.51,303.125 393,399.5C 386.073,423.245 371.573,429.745 349.5,419C 344.294,413.09 340.794,406.257 339,398.5C 315.493,302.804 291.826,207.137 268,111.5C 264.779,100.293 268.279,92.2933 278.5,87.5 Z"/></g>
<g><path style="opacity:1" fill="#fdfefe" d="M 60.5,93.5 C 116.834,93.3333 173.168,93.5 229.5,94C 242.607,97.0253 247.441,105.192 244,118.5C 241.961,126.299 236.794,130.466 228.5,131C 207.836,131.5 187.169,131.667 166.5,131.5C 166.667,223.167 166.5,314.834 166,406.5C 162.093,422.21 152.26,427.71 136.5,423C 129.534,418.924 125.701,412.758 125,404.5C 124.5,313.501 124.333,222.501 124.5,131.5C 103.164,131.667 81.8307,131.5 60.5,131C 49.1387,126.788 44.6387,118.621 47,106.5C 49.4424,99.8884 53.9424,95.555 60.5,93.5 Z"/></g>
</svg>
